# xmcd CD database file
#
# Track frame offsets:
#	150
#	3265
#	50560
#	100892
#	138455
#	150202
#	186682
#	204370
#	228865
#	259790
#	292835
#
# Disc length: 4504 seconds
#
# Revision: 0
# Processed by: cddbd v1.5.1PL0 Copyright (c) Steve Scherf et al.
# Submitted via: CDex 1.51
#
DISCID=8d11960b
DTITLE=Flip Phillips - Celebrates His 80th Birthday at the March of Jazz 1995
DYEAR=2003
DGENRE=Jazz
TTITLE0=Mat Domber Introduces Flip Phillips
TTITLE1=Tenor Madness/Great Scott
TTITLE2=Spanish Eyes
TTITLE3=Poor Butterfly
TTITLE4=When You Know You're Getting Old
TTITLE5=The Claw
TTITLE6=If I Had a Penny
TTITLE7=Maria Elena
TTITLE8=Hashimoto's Blues
TTITLE9=Sweet and Lovely
TTITLE10=Perdido
EXTD=YEAR: 2003
EXTT0=
EXTT1=
EXTT2=
EXTT3=
EXTT4=
EXTT5=
EXTT6=
EXTT7=
EXTT8=
EXTT9=
EXTT10=
PLAYORDER=
